<svg width="90" height="36" viewBox="0 0 90 36" fill="none" xmlns="http://www.w3.org/2000/svg">
<path d="M1.856 7.6V30H9.536C15.552 30 18.752 27.024 18.752 20.912V16.688C18.752 10.576 15.552 7.6 9.536 7.6H1.856ZM6.08 11.44H9.6C13.216 11.44 14.528 13.296 14.528 16.56V21.04C14.528 24.304 13.216 26.16 9.6 26.16H6.08V11.44ZM19.9108 21.936C19.9108 26.864 23.3348 30.448 28.0708 30.448C32.3268 30.448 34.1828 28.208 35.2708 26.544L31.9748 24.624C31.4308 25.744 30.2468 26.992 28.0068 26.992C25.7028 26.992 24.1988 25.36 24.0388 23.248H35.5908V21.68C35.5908 16.912 32.4868 13.68 27.8788 13.68C23.2068 13.68 19.9108 17.136 19.9108 21.936ZM24.0708 20.432C24.3908 18.48 25.5748 17.136 27.8468 17.136C29.9268 17.136 31.2068 18.416 31.4948 20.432H24.0708ZM35.409 14.128L40.881 30H46.833L52.305 14.128H47.953L44.049 26.48H43.665L39.761 14.128H35.409ZM70.0403 14.128H64.4083L57.9443 19.568H57.5603V7.6H53.5283V30H57.5603V24.528L59.9923 22.512L65.1123 30H69.7843L62.8403 20.112L70.0403 14.128ZM70.4313 9.52C70.4313 11.152 71.6793 12.272 73.2793 12.272C74.8793 12.272 76.1273 11.152 76.1273 9.52C76.1273 7.888 74.8793 6.768 73.2793 6.768C71.6793 6.768 70.4313 7.888 70.4313 9.52ZM75.2953 14.128H71.2633V30H75.2953V14.128ZM76.5843 14.128V17.584H80.6163V26.928C80.6163 28.72 81.9603 30 83.7523 30H88.1043V26.544H85.5443C84.9683 26.544 84.6483 26.224 84.6483 25.584V17.584H89.0003V14.128H84.6483V9.2H80.6163V14.128H76.5843Z" fill="#141414"/>
</svg>
